<svg xmlns="http://www.w3.org/2000/svg" width="360" height="96" viewBox="0 0 360 96" role="img" aria-label="快鸭品牌标识">
  <defs>
    <linearGradient id="duck" x1="0" x2="1" y1="0" y2="1">
      <stop stop-color="#fff06a"/>
      <stop offset=".5" stop-color="#ffd23f"/>
      <stop offset="1" stop-color="#ff9f1a"/>
    </linearGradient>
    <linearGradient id="rocket" x1="0" x2="1" y1="0" y2="1">
      <stop stop-color="#29b6ff"/>
      <stop offset="1" stop-color="#8d67ff"/>
    </linearGradient>
    <filter id="glow" x="-25%" y="-25%" width="150%" height="150%">
      <feDropShadow dx="0" dy="8" stdDeviation="8" flood-color="#ffc83d" flood-opacity=".35"/>
    </filter>
  </defs>
  <rect width="360" height="96" rx="18" fill="#071225"/>
  <g filter="url(#glow)">
    <path d="M22 57c10-18 27-28 49-27 14 1 25 6 34 16l12-6 4 14c5 7 7 14 6 22H63c-17 0-31-6-41-19Z" fill="url(#duck)"/>
    <circle cx="60" cy="44" r="13" fill="#fff7bc"/>
    <circle cx="65" cy="41" r="3" fill="#061225"/>
    <path d="M39 58c-11-3-20-9-27-17 12-1 22 3 30 10Z" fill="#ffb21f"/>
    <path d="M75 54c7 6 15 9 26 8-6 6-14 9-25 9-8 0-15-2-21-6 8-1 15-5 20-11Z" fill="#f18f01" opacity=".9"/>
    <path d="M97 24c10-14 24-20 42-20-1 18-10 32-26 42Z" fill="url(#rocket)"/>
    <circle cx="122" cy="18" r="5" fill="#eaf7ff"/>
    <path d="M103 47c-7 9-11 19-11 30 10-4 18-11 24-21Z" fill="#ff62c6"/>
    <path d="M122 47c12 1 24 5 36 13-16 2-29 0-39-7Z" fill="#48f0d7"/>
    <path d="M12 68h38M5 79h72M135 68h42" stroke="#48f0d7" stroke-width="5" stroke-linecap="round" opacity=".72"/>
    <path d="M154 27c10 5 18 13 23 23M164 16c17 8 29 21 36 38" stroke="#29b6ff" stroke-width="4" fill="none" stroke-linecap="round" opacity=".7"/>
  </g>
  <text x="190" y="45" fill="#ffffff" font-size="30" font-family="Microsoft YaHei, Arial" font-weight="800">快鸭</text>
  <text x="192" y="69" fill="#9feeff" font-size="13" font-family="Arial">FAST CONNECT · SMART ROUTE</text>
</svg>
