<svg xmlns="http://www.w3.org/2000/svg" width="420" height="310" viewBox="0 0 420 310" role="img" aria-labelledby="t"><title id="t">加速器设置中心界面</title><rect width="420" height="310" rx="26" fill="#f5f8ff"/><rect x="34" y="30" width="352" height="250" rx="24" fill="#fff"/><rect x="64" y="60" width="120" height="18" rx="9" fill="#22314f"/><g fill="#f1f5ff"><rect x="64" y="104" width="292" height="36" rx="12"/><rect x="64" y="154" width="292" height="36" rx="12"/><rect x="64" y="204" width="292" height="36" rx="12"/></g><g fill="#246bfe"><rect x="82" y="117" width="98" height="10" rx="5"/><rect x="82" y="167" width="126" height="10" rx="5"/><rect x="82" y="217" width="108" height="10" rx="5"/></g><g><rect x="292" y="112" width="42" height="20" rx="10" fill="#21c7d9"/><circle cx="318" cy="122" r="8" fill="#fff"/><rect x="292" y="162" width="42" height="20" rx="10" fill="#d7deec"/><circle cx="306" cy="172" r="8" fill="#fff"/><rect x="292" y="212" width="42" height="20" rx="10" fill="#21c7d9"/><circle cx="318" cy="222" r="8" fill="#fff"/></g></svg>
