<svg xmlns="http://www.w3.org/2000/svg" width="420" height="310" viewBox="0 0 420 310" role="img" aria-labelledby="t"><title id="t">加速器节点选择界面</title><rect width="420" height="310" rx="26" fill="#f5f8ff"/><rect x="34" y="30" width="352" height="250" rx="24" fill="#fff"/><rect x="62" y="58" width="150" height="18" rx="9" fill="#22314f"/><g><rect x="62" y="102" width="296" height="42" rx="14" fill="#eef4ff"/><rect x="82" y="116" width="80" height="12" rx="6" fill="#246bfe"/><rect x="284" y="116" width="42" height="12" rx="6" fill="#21c7d9"/></g><g><rect x="62" y="158" width="296" height="42" rx="14" fill="#f7f8fc"/><rect x="82" y="172" width="94" height="12" rx="6" fill="#7c879d"/><rect x="284" y="172" width="42" height="12" rx="6" fill="#8bdbe4"/></g><g><rect x="62" y="214" width="296" height="42" rx="14" fill="#f7f8fc"/><rect x="82" y="228" width="110" height="12" rx="6" fill="#7c879d"/><rect x="284" y="228" width="42" height="12" rx="6" fill="#8bdbe4"/></g></svg>
