<svg xmlns="http://www.w3.org/2000/svg" width="620" height="460" viewBox="0 0 620 460" role="img" aria-labelledby="t d"><title id="t">加速器稳定连接科技插画</title><desc id="d">展示加速器客户端、节点和低延迟连接的科技风插画</desc><defs><linearGradient id="g" x1="0" x2="1" y1="0" y2="1"><stop stop-color="#246bfe"/><stop offset="1" stop-color="#7c4dff"/></linearGradient><filter id="s" x="-20%" y="-20%" width="140%" height="140%"><feDropShadow dx="0" dy="18" stdDeviation="18" flood-color="#20366f" flood-opacity=".18"/></filter></defs><rect width="620" height="460" rx="36" fill="#f4f7ff"/><circle cx="488" cy="92" r="56" fill="#e6dcff"/><circle cx="105" cy="356" r="76" fill="#dff7fb"/><path d="M138 300c88-112 218-150 342-84" fill="none" stroke="#d2dbf4" stroke-width="10" stroke-linecap="round"/><g filter="url(#s)"><rect x="170" y="82" width="280" height="310" rx="30" fill="#fff"/><rect x="194" y="118" width="232" height="54" rx="18" fill="url(#g)"/><circle cx="310" cy="239" r="62" fill="#eef4ff"/><path d="M310 195a44 44 0 1 1-31 13" fill="none" stroke="url(#g)" stroke-width="14" stroke-linecap="round"/><path d="M310 239l38-34" stroke="#21c7d9" stroke-width="10" stroke-linecap="round"/><rect x="212" y="324" width="196" height="20" rx="10" fill="#edf1fb"/><rect x="212" y="354" width="128" height="16" rx="8" fill="#d8e1f6"/></g><g fill="#fff" stroke="#cbd6ef" stroke-width="4"><circle cx="110" cy="170" r="34"/><circle cx="510" cy="286" r="38"/><circle cx="478" cy="170" r="24"/></g><g fill="#246bfe"><circle cx="110" cy="170" r="8"/><circle cx="510" cy="286" r="9"/><circle cx="478" cy="170" r="7"/></g></svg>
